<svg width="24" height="24" viewBox="0 0 24 24" fill="none" xmlns="http://www.w3.org/2000/svg">
<circle cx="12" cy="12" r="11.5" fill="white" stroke="#E6E6EB"/>
<path fill-rule="evenodd" clip-rule="evenodd" d="M11.2398 18.4993L11.9998 18.4993C15.5843 18.4993 18.4991 15.5846 18.4991 12C18.4991 8.41542 15.5843 5.5007 11.9998 5.5007C8.41521 5.5007 5.50049 8.41542 5.50049 12V14.8242H7.46476V12.1086C7.46476 9.61028 9.49239 7.58265 11.9907 7.58265C14.4891 7.58265 16.5167 9.61028 16.5167 12.1086C16.5167 14.6069 14.4891 16.6346 11.9907 16.6346H9.27514V18.4625C9.27523 18.4625 9.27531 18.4625 9.2754 18.4625V18.4993H11.2398ZM9.27514 12.1086V14.8242H11.9907C13.4843 14.8242 14.7063 13.6022 14.7063 12.1086C14.7063 10.615 13.4843 9.39303 11.9907 9.39303C10.4972 9.39303 9.27514 10.615 9.27514 12.1086Z" fill="url(#paint0_linear_448_1031)"/>
<defs>
<linearGradient id="paint0_linear_448_1031" x1="6" y1="9.5" x2="18" y2="15" gradientUnits="userSpaceOnUse">
<stop stop-color="#007CFF"/>
<stop offset="1" stop-color="#6C62FF"/>
</linearGradient>
</defs>
</svg>
