<svg width="14" height="14" viewBox="0 0 14 14" fill="none" xmlns="http://www.w3.org/2000/svg">
<path fill-rule="evenodd" clip-rule="evenodd" d="M0 5.42857C0 4.324 0.895432 3.42857 2 3.42857H8.57143C9.676 3.42857 10.5714 4.324 10.5714 5.42857V12C10.5714 13.1046 9.676 14 8.57143 14H2C0.895428 14 0 13.1046 0 12V5.42857ZM8.57143 5.92857C8.57143 5.65243 8.34757 5.42857 8.07143 5.42857L2.5 5.42857C2.22386 5.42857 2 5.65243 2 5.92857V11.5C2 11.7761 2.22386 12 2.5 12L8.07143 12C8.34757 12 8.57143 11.7761 8.57143 11.5L8.57143 5.92857Z" fill="#8B89A3"/>
<path fill-rule="evenodd" clip-rule="evenodd" d="M3.42871 2C3.42871 0.895429 4.32414 0 5.42871 0H12.0001C13.1047 0 14.0001 0.895432 14.0001 2V8.57143C14.0001 9.676 13.1047 10.5714 12.0001 10.5714H11.2859V8.57143H11.5001C11.7763 8.57143 12.0001 8.34757 12.0001 8.07143L12.0001 2.5C12.0001 2.22386 11.7763 2 11.5001 2L5.92871 2C5.65257 2 5.42871 2.22386 5.42871 2.5V2.71429H3.42871V2Z" fill="#8B89A3"/>
</svg>
