<svg width="16" height="16" viewBox="0 0 16 16" fill="none" xmlns="http://www.w3.org/2000/svg">
<path fill-rule="evenodd" clip-rule="evenodd" d="M8 0C12.4183 0 16 3.58172 16 8C16 12.4183 12.4183 16 8 16C3.58172 16 0 12.4183 0 8C0 3.58172 3.58172 0 8 0ZM8 2C11.3137 2 14 4.68629 14 8C14 11.3137 11.3137 14 8 14C4.68629 14 2 11.3137 2 8C2 4.68629 4.68629 2 8 2Z" fill="#5D52FF"/>
<path fill-rule="evenodd" clip-rule="evenodd" d="M7.66406 4.5C8.1769 4.5 8.59957 4.88604 8.65733 5.38338L8.66406 5.5V8.08579L10.3712 9.79289C10.7617 10.1834 10.7617 10.8166 10.3712 11.2071C10.0107 11.5676 9.44345 11.5953 9.05116 11.2903L8.95696 11.2071L6.95696 9.20711C6.80068 9.05083 6.70146 8.84815 6.67273 8.63144L6.66406 8.5V5.5C6.66406 4.94772 7.11178 4.5 7.66406 4.5Z" fill="#5D52FF"/>
</svg>
