<svg width="20" height="20" viewBox="0 0 20 20" fill="none" xmlns="http://www.w3.org/2000/svg">
<path fill-rule="evenodd" clip-rule="evenodd" d="M10.0003 1.66663C14.6027 1.66663 18.3337 5.39759 18.3337 9.99996C18.3337 14.6023 14.6027 18.3333 10.0003 18.3333C5.39795 18.3333 1.66699 14.6023 1.66699 9.99996C1.66699 5.39759 5.39795 1.66663 10.0003 1.66663ZM10.0003 3.33329C6.31843 3.33329 3.33366 6.31806 3.33366 9.99996C3.33366 13.6819 6.31843 16.6666 10.0003 16.6666C13.6822 16.6666 16.667 13.6819 16.667 9.99996C16.667 6.31806 13.6822 3.33329 10.0003 3.33329ZM10.0003 13.3333C10.4606 13.3333 10.8337 13.7064 10.8337 14.1666C10.8337 14.6269 10.4606 15 10.0003 15C9.54009 15 9.16699 14.6269 9.16699 14.1666C9.16699 13.7064 9.54009 13.3333 10.0003 13.3333ZM10.0003 4.99996C11.8413 4.99996 13.3337 6.49234 13.3337 8.33329C13.3337 9.82897 12.3486 11.0946 10.9918 11.5167L10.8337 11.5616V11.6666C10.8337 12.1269 10.4606 12.5 10.0003 12.5C9.57296 12.5 9.22074 12.1783 9.1726 11.7638L9.16699 11.6666V10.8333C9.16699 10.4059 9.48869 10.0537 9.90314 10.0056L10.1247 9.99539C10.9871 9.93176 11.667 9.21193 11.667 8.33329C11.667 7.41282 10.9208 6.66663 10.0003 6.66663C9.07985 6.66663 8.33366 7.41282 8.33366 8.33329C8.33366 8.79353 7.96056 9.16663 7.50033 9.16663C7.04009 9.16663 6.66699 8.79353 6.66699 8.33329C6.66699 6.49234 8.15938 4.99996 10.0003 4.99996Z" fill="#8B89A3"/>
</svg>
