<svg width="24" height="24" viewBox="0 0 24 24" fill="none" xmlns="http://www.w3.org/2000/svg">
<path d="M13 3C8.02995 3 3.99995 7.03 3.99995 12H2.20706C1.7616 12 1.53852 12.5386 1.8535 12.8536L4.54599 15.546C4.73746 15.7375 5.04657 15.7418 5.24324 15.5556L8.088 12.8631C8.41635 12.5524 8.19641 12 7.7443 12H5.99995C5.99995 8.13 9.12995 5 13 5C16.87 5 20 8.13 20 12C20 15.87 16.87 19 13 19C11.4314 19 9.9817 18.4782 8.81734 17.601C8.37406 17.267 7.74099 17.259 7.34855 17.6514C6.9572 18.0428 6.95408 18.6823 7.38593 19.0284C8.92443 20.2615 10.8708 21 13 21C17.97 21 22 16.97 22 12C22 7.03 17.97 3 13 3ZM12 8V13L16.28 15.54L17 14.33L13.5 12.25V8H12Z" fill="#28292D"/>
</svg>
