<svg width="42" height="42" viewBox="0 0 42 42" fill="none" xmlns="http://www.w3.org/2000/svg">
<path d="M0 21C0 32.598 9.40202 42 21 42C32.598 42 42 32.598 42 21C42 9.40202 32.598 0 21 0C9.40202 0 0 9.40202 0 21Z" fill="white"/>
<path d="M22.8604 16.8354L24.8165 12.2002L33.4384 8.97893L22.8604 16.8354Z" fill="#E2761B"/>
<path fill-rule="evenodd" clip-rule="evenodd" d="M19.5114 16.9098L17.651 12.2002L9.01839 8.97894L19.5114 16.9098ZM29.633 27.1903L26.8157 31.5066L32.8436 33.165L34.5765 27.286L29.633 27.1903ZM9.62461 33.165L7.90234 27.286L12.8352 27.1903L15.6525 31.5066L9.62461 33.165Z" fill="#E4761B"/>
<path fill-rule="evenodd" clip-rule="evenodd" d="M22.9991 16.1976L27.1453 19.8973L28.8356 22.4381L22.8609 22.7039L22.9991 16.1976ZM13.6328 22.4381L15.3126 19.8973L19.4056 16.272L19.6182 22.7039L13.6328 22.4381ZM19.2462 29.7524L16.1419 27.3285L15.6528 31.5066L19.2462 29.7524ZM26.3159 27.3285L26.8156 31.5066L23.2116 29.7524L26.3159 27.3285Z" fill="#E4761B"/>
<path fill-rule="evenodd" clip-rule="evenodd" d="M19.0012 33.0906L15.6523 31.5066L19.2457 29.7524L18.9799 32.1019L19.0012 33.0906ZM23.2116 29.7524L26.8155 31.5066L23.4667 33.0906L23.4986 32.1019L23.2116 29.7524Z" fill="#D7C1B3"/>
<path fill-rule="evenodd" clip-rule="evenodd" d="M26.4111 24.8939L24.2848 23.9265L23.4025 25.7763L26.4111 24.8939ZM18.1718 23.9265L16.0562 24.8939L19.0542 25.7763L18.1718 23.9265Z" fill="#233447"/>
<path fill-rule="evenodd" clip-rule="evenodd" d="M24.296 23.9264L26.4222 24.8939L28.8355 22.4381L22.8607 22.7039L23.4136 25.7763L24.296 23.9264ZM12.8354 27.2859L16.163 27.1902L15.6527 31.5065L12.8354 27.2859ZM29.6332 27.2859L26.8159 31.5065L26.3056 27.1902L29.6332 27.2859ZM13.6327 22.4381L19.6181 22.7039L19.0546 25.7763L18.1829 23.9264L16.0566 24.8939L13.6327 22.4381Z" fill="#CD6116"/>
<path fill-rule="evenodd" clip-rule="evenodd" d="M16.0562 24.8939L16.1413 27.3285L13.6323 22.4381L16.0562 24.8939ZM28.8356 22.4381L26.316 27.3285L26.4223 24.8939L28.8356 22.4381ZM19.6177 22.7039L19.0543 25.7763L19.7559 29.4016L19.9154 24.6281L19.6177 22.7039ZM22.5734 24.6175L22.8604 22.7039L23.4132 25.7763L22.7009 29.4016L22.5734 24.6175Z" fill="#E4751F"/>
<path fill-rule="evenodd" clip-rule="evenodd" d="M19.0542 25.7763L19.7558 29.4016L19.2455 29.7524L16.1412 27.3285L16.0562 24.8939L19.0542 25.7763ZM26.4215 24.8939L26.3152 27.3285L23.2108 29.7524L22.7005 29.4016L23.4128 25.7763L26.4215 24.8939Z" fill="#F6851B"/>
<path d="M18.9799 32.1019L19.0012 33.0906L15.6523 31.5066L16.8218 32.4634L19.1926 34.1112H23.2643L25.6457 32.4634L26.8152 31.5066L23.4663 33.0906L23.4982 32.1019L23.2324 31.868H19.2244L18.9799 32.1019Z" fill="#C0AD9E"/>
<path d="M18.98 32.1019L19.2245 31.868H23.2325L23.4983 32.1019L23.2112 29.7524L22.7009 29.4016H19.7561L19.2458 29.7524L18.98 32.1019Z" fill="#161616"/>
<path fill-rule="evenodd" clip-rule="evenodd" d="M9.7518 21.5238L8.52921 20.0886L9.06077 19.7059L8.21027 18.9298L8.85878 18.4195L8.00828 17.771L8.58237 17.3457L7.67871 13.0082L9.01825 8.97893L19.2455 16.5696L15.3119 19.8972L9.7518 21.5238ZM33.4067 19.7059L33.9383 20.0886L32.7051 21.5238L27.1449 19.8972L23.2114 16.5696L33.4386 8.97893L34.7888 13.0082L33.8851 17.3457L34.4486 17.771L33.5981 18.4195L34.2572 18.9298L33.4067 19.7059Z" fill="#763D16"/>
<path fill-rule="evenodd" clip-rule="evenodd" d="M22.7224 24.6388L22.7011 29.4016H19.7562L19.7456 24.6388L19.618 22.7039L19.2459 16.5696L17.6512 12.2002H24.8273L23.2114 16.5696L22.8606 22.7039L22.7224 24.6388ZM16.1416 27.3285L13.6326 22.4381L15.3123 19.8972L9.75218 21.5238L7.90234 27.2859H12.8352L16.1416 27.3285ZM29.6327 27.2859H34.5763L32.7052 21.5238L27.145 19.8972L28.8354 22.4381L26.3158 27.3285L29.6327 27.2859Z" fill="#F6851B"/>
</svg>
