<svg width="26" height="26" viewBox="0 0 26 26" fill="none" xmlns="http://www.w3.org/2000/svg">
<path d="M1 13C1 19.6274 6.37258 25 13 25C19.6274 25 25 19.6274 25 13C25 6.37258 19.6274 1 13 1C6.37258 1 1 6.37258 1 13Z" fill="white" stroke="#5D52FF"/>
<path d="M14.063 10.6202L15.1808 7.97154L20.1076 6.13082L14.063 10.6202Z" fill="#E2761B"/>
<path fill-rule="evenodd" clip-rule="evenodd" d="M12.1494 10.6628L11.0863 7.97154L6.15336 6.13082L12.1494 10.6628ZM17.9331 16.5373L16.3232 19.0038L19.7678 19.9515L20.758 16.592L17.9331 16.5373ZM6.49978 19.9515L5.51562 16.592L8.33443 16.5373L9.9443 19.0038L6.49978 19.9515Z" fill="#E4761B"/>
<path fill-rule="evenodd" clip-rule="evenodd" d="M14.1422 10.2558L16.5114 12.3699L17.4774 13.8218L14.0632 13.9737L14.1422 10.2558ZM8.79004 13.8218L9.74989 12.3699L12.0888 10.2983L12.2103 13.9737L8.79004 13.8218ZM11.9977 18.0014L10.2238 16.6163L9.94434 19.0038L11.9977 18.0014ZM16.0375 16.6163L16.3231 19.0038L14.2636 18.0014L16.0375 16.6163Z" fill="#E4761B"/>
<path fill-rule="evenodd" clip-rule="evenodd" d="M11.8575 19.9089L9.94385 19.0038L11.9972 18.0014L11.8453 19.344L11.8575 19.9089ZM14.2634 18.0014L16.3228 19.0038L14.4092 19.9089L14.4274 19.344L14.2634 18.0014Z" fill="#D7C1B3"/>
<path fill-rule="evenodd" clip-rule="evenodd" d="M16.0919 15.2251L14.8769 14.6723L14.3727 15.7293L16.0919 15.2251ZM11.3837 14.6723L10.1748 15.2251L11.888 15.7293L11.3837 14.6723Z" fill="#233447"/>
<path fill-rule="evenodd" clip-rule="evenodd" d="M14.8833 14.6723L16.0983 15.2251L17.4774 13.8218L14.0632 13.9736L14.3791 15.7293L14.8833 14.6723ZM8.33447 16.592L10.2359 16.5373L9.94435 19.0037L8.33447 16.592ZM17.9332 16.592L16.3233 19.0037L16.0317 16.5373L17.9332 16.592ZM8.79004 13.8218L12.2103 13.9736L11.8883 15.7293L11.3901 14.6723L10.1751 15.2251L8.79004 13.8218Z" fill="#CD6116"/>
<path fill-rule="evenodd" clip-rule="evenodd" d="M10.1747 15.2251L10.2233 16.6163L8.78955 13.8218L10.1747 15.2251ZM17.4771 13.8218L16.0373 16.6163L16.0981 15.2251L17.4771 13.8218ZM12.2097 13.9736L11.8878 15.7293L12.2887 17.8009L12.3798 15.0732L12.2097 13.9736ZM13.8987 15.0671L14.0627 13.9736L14.3786 15.7293L13.9716 17.8009L13.8987 15.0671Z" fill="#E4751F"/>
<path fill-rule="evenodd" clip-rule="evenodd" d="M11.888 15.7293L12.2889 17.8009L11.9973 18.0014L10.2234 16.6163L10.1748 15.2251L11.888 15.7293ZM16.0978 15.2251L16.0371 16.6163L14.2632 18.0014L13.9716 17.8009L14.3786 15.7293L16.0978 15.2251Z" fill="#F6851B"/>
<path d="M11.8453 19.344L11.8575 19.9089L9.94385 19.0038L10.6121 19.5505L11.9668 20.4921H14.2935L15.6543 19.5505L16.3226 19.0038L14.409 19.9089L14.4272 19.344L14.2753 19.2103H11.985L11.8453 19.344Z" fill="#C0AD9E"/>
<path d="M11.8457 19.3439L11.9854 19.2103H14.2757L14.4276 19.3439L14.2636 18.0014L13.972 17.8009H12.2892L11.9976 18.0014L11.8457 19.3439Z" fill="#161616"/>
<path fill-rule="evenodd" clip-rule="evenodd" d="M6.57232 13.2993L5.8737 12.4792L6.17745 12.2605L5.69145 11.817L6.06202 11.5254L5.57602 11.1548L5.90407 10.9118L5.3877 8.43324L6.15315 6.13082L11.9973 10.4684L9.74955 12.3698L6.57232 13.2993ZM20.0894 12.2605L20.3932 12.4792L19.6885 13.2993L16.5112 12.3698L14.2635 10.4684L20.1076 6.13082L20.8792 8.43324L20.3628 10.9118L20.6848 11.1548L20.1988 11.5254L20.5754 11.817L20.0894 12.2605Z" fill="#763D16"/>
<path fill-rule="evenodd" clip-rule="evenodd" d="M13.9842 15.0793L13.9721 17.8009H12.2893L12.2832 15.0793L12.2103 13.9736L11.9977 10.4684L11.0864 7.97154H15.1871L14.2637 10.4684L14.0632 13.9736L13.9842 15.0793ZM10.2238 16.6163L8.79005 13.8218L9.7499 12.3698L6.57268 13.2993L5.51562 16.592H8.33443L10.2238 16.6163ZM17.933 16.592H20.7579L19.6887 13.2993L16.5114 12.3698L17.4774 13.8218L16.0376 16.6163L17.933 16.592Z" fill="#F6851B"/>
</svg>
