<svg width="24" height="24" viewBox="0 0 24 24" fill="none" xmlns="http://www.w3.org/2000/svg">
<circle cx="12" cy="12" r="12" fill="black"/>
<path fill-rule="evenodd" clip-rule="evenodd" d="M11.2398 18.4993H11.9998C15.5843 18.4993 18.499 15.5846 18.499 12C18.499 8.41544 15.5843 5.50072 11.9998 5.50072C8.41521 5.50072 5.50049 8.41544 5.50049 12V14.8242H7.46476V12.1086C7.46476 9.61029 9.49238 7.58266 11.9907 7.58266C14.489 7.58266 16.5167 9.61029 16.5167 12.1086C16.5167 14.6069 14.489 16.6346 11.9907 16.6346H9.27514V18.4624C9.27522 18.4625 9.27531 18.4625 9.27539 18.4625V18.4993H11.2398V18.4993ZM9.27514 12.1086V14.8242H11.9907C13.4843 14.8242 14.7063 13.6022 14.7063 12.1086C14.7063 10.6151 13.4843 9.39304 11.9907 9.39304C10.4971 9.39304 9.27514 10.6151 9.27514 12.1086Z" fill="#FFD43B"/>
</svg>
