<svg width="24" height="24" viewBox="0 0 24 24" fill="none" xmlns="http://www.w3.org/2000/svg">
<circle cx="12" cy="12" r="12" fill="#5D52FF"/>
<path d="M12.0002 5.33334C8.32016 5.33334 5.3335 8.32001 5.3335 12V15.7227H6.05883H6.78415H8.36282V17.216V18.016V18.6667H12.0002C15.6802 18.6667 18.6668 15.68 18.6668 12C18.6668 8.33068 15.6802 5.33334 12.0002 5.33334ZM12.0002 17.216H9.8135V15.7227H11.9895C13.9948 15.7227 15.6162 14.0907 15.6162 12.096C15.6162 10.0907 13.9842 8.46934 11.9895 8.46934C9.98415 8.46934 8.36282 10.1013 8.36282 12.096V14.272H6.78415V12.0107C6.78415 9.13067 9.12016 6.79467 12.0002 6.79467C14.8802 6.79467 17.2162 9.13067 17.2162 12.0107C17.2162 14.88 14.8802 17.216 12.0002 17.216ZM9.8135 14.272V12.096C9.8135 10.8907 10.7948 9.92001 11.9895 9.92001C13.1948 9.92001 14.1655 10.9013 14.1655 12.096C14.1655 13.2907 13.1842 14.272 11.9895 14.272H9.8135Z" fill="white"/>
</svg>
