<svg width="38" height="38" viewBox="0 0 38 38" fill="none" xmlns="http://www.w3.org/2000/svg">
<circle cx="19" cy="19" r="18.5" fill="black" stroke="white"/>
<path d="M23.7075 10C26.9622 10 28.8855 11.8687 28.8855 15.0413V15.0765H24.8861C23.0249 15.0798 21.5172 16.5499 21.5138 18.3645C21.5113 20.1833 23.0207 21.6599 24.8861 21.6624H28.8889V21.9513C28.8889 25.1239 26.9656 27 23.7108 27H15.1789C11.9233 27 10 25.1239 10 21.9513V15.0413C10 11.8687 11.9233 10 15.1789 10H23.7075ZM19.8063 13.6596H14.4762C14.08 13.6613 13.7585 13.9748 13.7568 14.3619C13.7551 14.7507 14.0775 15.0675 14.4762 15.0691H19.813C20.2118 15.0675 20.5341 14.7507 20.5325 14.3611C20.5308 13.9723 20.205 13.658 19.8063 13.6596Z" fill="#5C17E6"/>
<path d="M23.2575 18.7801C23.455 19.6785 24.2426 20.3105 25.1418 20.2941H28.2112C28.5854 20.2941 28.8888 19.9842 28.8888 19.6012V17.2103C28.888 16.8281 28.5854 16.5174 28.2112 16.5166H25.0696C24.0467 16.5199 23.2206 17.3689 23.2222 18.4152C23.2222 18.5377 23.2342 18.6601 23.2575 18.7801Z" fill="#5C17E6"/>
<path d="M25.1109 19.3498C25.6326 19.3498 26.0554 18.927 26.0554 18.4054C26.0554 17.8838 25.6326 17.4609 25.1109 17.4609C24.5893 17.4609 24.1665 17.8838 24.1665 18.4054C24.1665 18.927 24.5893 19.3498 25.1109 19.3498Z" fill="white"/>
</svg>
